Coordinates
version=1
nRows=8
nColumns=36
inDegrees=yes

Units are S.I. units (second, meters, Newtons, ...)
If the header above contains a line with 'inDegrees', this indicates whether rotational values are in degrees (yes) or radians (no).

endheader
time	pelvis_tilt	pelvis_list	pelvis_rotation	pelvis_tx	pelvis_ty	pelvis_tz	hip_flexion_r	hip_adduction_r	hip_rotation_r	knee_angle_r	knee_angle_r_beta	ankle_angle_r	subtalar_angle_r	mtp_angle_r	hip_flexion_l	hip_adduction_l	hip_rotation_l	knee_angle_l	knee_angle_l_beta	ankle_angle_l	subtalar_angle_l	mtp_angle_l	lumbar_extension	lumbar_bending	lumbar_rotation	arm_flex_r	arm_add_r	arm_rot_r	elbow_flex_r	pro_sup_r	arm_flex_l	arm_add_l	arm_rot_l	elbow_flex_l	pro_sup_l
      3.22083330	    -10.34016201	     -1.57328616	      3.68102432	      0.31863805	      1.09237415	     -0.01406228	     23.75708960	     -9.01419316	    -11.98317699	     11.86084016	      0.20701071	    -29.82863437	    -12.67651179	     -7.49999987	     24.55779562	     -9.42392364	     -7.46494520	     10.57293395	      0.18453251	    -29.79826902	    -12.40586486	     -7.49999987	     -8.37637642	      0.82075978	      0.32835465	     27.82412508	    -17.71505217	     25.74443957	    112.58146083	     91.73990729	     34.32841462	    -14.97331464	     11.05263492	    110.26590166	     65.14798456
      3.22500000	    -10.39700927	     -1.42607700	      3.60351431	      0.31897047	      1.08546280	     -0.01390045	     23.95226210	     -8.90000752	    -11.88391983	     11.98672045	      0.20920774	    -30.07665420	    -12.66856046	     -7.49999987	     24.65588776	     -9.35305666	     -7.50624134	     10.59213643	      0.18486766	    -29.50515968	    -12.64919945	     -7.49999987	     -8.33401251	      0.61152124	      0.34269868	     27.78699190	    -17.57799011	     25.76297660	    112.75094931	     90.66118978	     34.55347264	    -15.06786810	     10.92223497	    110.32060559	     64.98186757
      3.22916670	    -10.56425767	     -1.31428425	      3.91793592	      0.32232233	      1.07623709	     -0.01824810	     24.18580463	     -9.15485056	    -11.83822203	     12.09447181	      0.21108835	    -30.16308263	    -12.54180547	     -7.49999987	     24.90918432	     -9.12969332	     -8.38528502	     10.87284037	      0.18976686	    -29.60861434	    -15.17406118	     -7.49999987	     -8.02831994	      0.55611832	      0.16895113	     27.40011150	    -17.40984401	     25.44436663	    113.01554915	     89.82397148	     34.54136404	    -14.89754856	     10.75975136	    110.37155541	     64.84495539
      3.23333330	    -10.72591716	     -1.33955424	      4.03846697	      0.32302731	      1.07551436	     -0.01841757	     24.31519646	     -9.22972156	    -11.42048927	     11.98338715	      0.20914956	    -29.63087291	    -12.35388890	     -7.49999987	     25.00430770	     -8.84846998	     -8.50118136	     10.53428328	      0.18385793	    -28.94338672	    -15.63231738	     -7.49999987	     -7.74521862	      0.79698106	      0.33065651	     27.03898583	    -17.55739708	     25.40226300	    113.09995650	     88.49243219	     34.21143351	    -14.46240456	     10.54488667	    110.18166898	     64.56071602
      3.23750000	    -10.64779874	     -1.39298332	      3.77420383	      0.32283507	      1.07229980	     -0.01826715	     24.42078307	     -9.07237332	    -11.25234494	     12.01492168	      0.20969994	    -29.42882190	    -12.11457006	     -7.49999987	     24.84364037	     -8.80182547	     -8.26683360	     10.18982942	      0.17784607	    -28.23625860	    -14.40332901	     -7.49999987	     -8.01968242	      1.07148520	      0.74385908	     26.67534552	    -17.83371396	     25.33664822	    113.60043799	     87.11940980	     33.64160787	    -14.23723132	      9.73747609	    110.57468279	     64.48609955
      3.24166670	    -10.53030218	     -1.57334709	      3.84101843	      0.32305657	      1.06518413	     -0.01851186	     24.43042703	     -8.88211958	    -10.83274771	     12.25391642	      0.21387119	    -28.98758349	    -12.62207666	     -7.49999987	     24.69848245	     -8.79981842	     -7.47965495	      9.92582884	      0.17323839	    -28.16658201	    -13.86666449	     -7.49999987	     -8.08858621	      1.50530260	      0.77428555	     26.52774198	    -18.19753298	     25.36875036	    113.52322378	     87.28694321	     33.27763898	    -13.94104958	      9.18586755	    110.17901692	     64.42139748
      3.24583330	    -10.47125213	     -1.35443012	      3.84885386	      0.32296813	      1.05658867	     -0.01798422	     24.65341869	     -9.01611415	    -10.58382302	     12.53821345	      0.21883311	    -28.78355097	    -13.55532818	     -7.49999987	     24.69697585	     -8.54502159	     -7.62254759	      9.96661562	      0.17395026	    -27.35648902	    -13.93758064	     -7.49999987	     -8.28208030	      1.41985175	      0.83939375	     26.47831840	    -18.29211793	     25.41670882	    113.90373872	     85.23917136	     33.09488194	    -13.72938625	      8.85965731	    110.50732710	     64.06353644
      3.25000000	    -10.45347300	     -1.42841831	      4.05280926	      0.32337003	      1.05236279	     -0.01830799	     24.81899660	     -8.94633467	    -10.76860233	     12.67430037	      0.22120827	    -28.50137116	    -14.47156206	     -7.49999987	     24.89023665	     -8.53545747	     -7.47682162	     10.37090564	      0.18100645	    -26.64237026	    -14.03436513	     -7.49999987	     -8.27844262	      1.51726656	      0.87641419	     25.85204608	    -18.46637417	     24.38543016	    114.47134151	     93.07934355	     33.26039442	    -13.43852318	      8.72617648	    110.44061157	     64.87618578
